<?xml version="1.0" standalone="no"?>
<!DOCTYPE svg PUBLIC "-//W3C//DTD SVG 20010904//EN"
 "http://www.w3.org/TR/2001/REC-SVG-20010904/DTD/svg10.dtd">
<svg version="1.0" xmlns="http://www.w3.org/2000/svg"
 width="828.000000pt" height="939.000000pt" viewBox="0 0 828.000000 939.000000"
 preserveAspectRatio="xMidYMid meet">

<g transform="translate(0.000000,939.000000) scale(0.100000,-0.100000)"
fill="#000000" stroke="none">
<path d="M3933 9365 c-93 -17 -191 -49 -278 -93 -58 -28 -682 -395 -950 -557
-38 -23 -204 -122 -367 -219 -620 -367 -895 -530 -963 -571 -38 -23 -205 -122
-370 -220 -508 -301 -537 -320 -642 -427 -161 -166 -269 -371 -314 -601 -18
-94 -19 -167 -19 -1996 0 -2053 -2 -1964 52 -2131 73 -227 229 -447 407 -579
36 -27 149 -98 251 -158 177 -105 500 -297 940 -558 306 -182 719 -427 1045
-620 1006 -597 942 -561 1093 -609 80 -25 92 -26 322 -26 230 0 242 1 322 26
98 31 188 71 266 117 31 19 192 114 357 212 165 98 381 226 480 285 99 59 304
181 455 270 362 215 821 487 1045 620 99 59 281 167 405 240 264 156 333 203
419 284 207 197 330 454 360 755 15 139 15 3594 1 3743 -26 274 -133 512 -317
708 -104 110 -156 147 -493 348 -162 96 -378 225 -480 285 -102 61 -266 158
-365 217 -99 59 -315 187 -480 285 -165 98 -331 197 -370 220 -38 23 -205 122
-370 220 -165 98 -381 226 -480 285 -285 170 -382 214 -548 245 -97 18 -313
18 -414 0z m377 -206 c127 -23 212 -59 377 -157 54 -33 283 -168 508 -302 226
-133 491 -291 590 -350 99 -59 315 -187 480 -285 165 -98 433 -257 595 -353
859 -510 833 -493 930 -599 101 -110 180 -252 220 -395 28 -101 25 -110 -16
-51 -107 153 -309 176 -519 60 -33 -19 -116 -69 -185 -112 -69 -43 -192 -119
-275 -170 -82 -51 -206 -127 -275 -170 -69 -43 -145 -90 -170 -105 -25 -15
-101 -62 -170 -105 -69 -43 -192 -119 -275 -170 -82 -51 -206 -127 -275 -170
-69 -43 -192 -119 -275 -170 -82 -51 -204 -126 -270 -167 -66 -41 -268 -165
-450 -277 -448 -276 -527 -334 -638 -471 -64 -80 -125 -196 -154 -295 -17 -56
-18 -173 -21 -1912 -2 -1620 0 -1862 13 -1925 28 -134 89 -227 184 -281 l56
-32 -60 -8 c-80 -11 -217 -1 -309 23 -114 29 -197 68 -397 188 -101 60 -308
183 -459 272 -456 270 -855 507 -1045 620 -99 59 -315 187 -480 285 -165 98
-343 203 -395 235 -52 31 -187 111 -300 178 -113 67 -235 147 -272 177 -144
120 -262 307 -315 500 l-28 100 0 1910 0 1910 22 87 c48 187 126 329 253 457
96 98 130 121 545 366 312 185 634 376 1135 673 162 96 428 254 590 350 162
96 327 193 365 217 249 150 531 315 593 346 167 85 377 113 572 78z m1058
-4961 c8 -8 12 -55 12 -146 0 -124 1 -134 18 -127 41 16 141 35 184 35 73 0
98 -13 98 -52 0 -51 -66 -280 -84 -294 -10 -7 -41 -10 -84 -6 -161 11 -327
-83 -393 -223 -23 -47 -29 -74 -29 -127 0 -119 38 -142 265 -157 149 -11 219
-32 283 -86 103 -89 137 -291 85 -519 -39 -174 -154 -371 -288 -495 l-47 -43
1 -132 c1 -73 -3 -144 -8 -159 -9 -23 -79 -71 -180 -123 -45 -23 -51 -6 -51
142 0 74 -2 134 -3 134 -2 0 -30 -10 -63 -21 -44 -16 -84 -22 -160 -23 -149
-2 -152 4 -109 184 43 178 47 184 139 167 118 -22 264 27 369 123 96 88 149
225 126 330 -20 95 -79 125 -274 139 -71 5 -154 17 -182 27 -151 49 -219 203
-192 428 24 206 123 399 283 556 l56 54 0 136 c0 88 5 144 13 160 12 23 169
129 193 130 5 0 15 -5 22 -12z m1560 -1744 l-3 -115 -115 -71 c-63 -38 -167
-102 -230 -140 -63 -39 -140 -85 -170 -103 -30 -17 -100 -59 -155 -93 -55 -34
-103 -58 -108 -53 -4 4 -6 59 -5 122 l3 114 255 152 c140 84 286 172 325 195
113 70 179 107 193 107 10 1 12 -26 10 -115z"/>
</g>
</svg>
