<?xml version="1.0" standalone="no"?>
<!DOCTYPE svg PUBLIC "-//W3C//DTD SVG 20010904//EN"
 "http://www.w3.org/TR/2001/REC-SVG-20010904/DTD/svg10.dtd">
<svg version="1.0" xmlns="http://www.w3.org/2000/svg"
 width="754.000000pt" height="825.000000pt" viewBox="0 0 754.000000 825.000000"
 preserveAspectRatio="xMidYMid meet">

<g transform="translate(0.000000,825.000000) scale(0.100000,-0.100000)"
fill="#000000" stroke="none">
<path d="M3602 8214 c-103 -22 -161 -50 -507 -246 -416 -234 -2476 -1391
-2610 -1466 -55 -30 -128 -75 -161 -98 -134 -94 -238 -242 -286 -410 l-23 -79
0 -1780 c0 -1669 1 -1785 18 -1855 41 -177 149 -335 297 -437 25 -17 313 -181
640 -365 2112 -1188 2473 -1389 2517 -1407 126 -49 296 -64 428 -36 129 27 61
-9 1415 752 245 138 756 425 1135 638 380 213 718 407 752 431 115 82 201 198
257 347 l31 82 3 1813 c3 2021 8 1873 -68 2027 -48 99 -112 180 -193 246 -36
29 -280 173 -582 343 -286 161 -981 551 -1545 868 -564 317 -1049 586 -1079
598 -126 49 -306 63 -439 34z m503 -1973 c351 -59 665 -192 942 -400 106 -79
283 -249 364 -347 l58 -72 -390 -226 -391 -226 -75 70 c-235 219 -529 333
-854 332 -345 -2 -631 -122 -875 -366 -142 -142 -233 -284 -298 -464 -91 -253
-91 -581 0 -834 127 -354 415 -639 769 -761 437 -151 921 -48 1265 270 l69 64
383 -221 c211 -122 386 -225 390 -228 10 -10 -139 -179 -242 -275 -429 -403
-1023 -613 -1604 -568 -289 23 -534 88 -786 212 -530 259 -924 711 -1104 1269
-247 762 -44 1602 524 2170 329 328 793 558 1231 609 52 6 110 13 129 15 83
10 381 -4 495 -23z m1445 -1761 l0 -180 180 0 180 0 0 -175 0 -175 -180 0
-180 0 0 -180 0 -180 -180 0 -180 0 0 180 0 180 -177 0 -178 0 2 176 1 176
176 -2 176 -1 0 181 0 180 180 0 180 0 0 -180z m1250 0 l0 -180 180 0 180 0 0
-175 0 -175 -180 0 -180 0 0 -180 0 -180 -180 0 -180 0 0 180 0 180 -175 0
-175 0 -1 78 c-1 42 -2 121 -3 174 l-1 98 178 0 177 0 0 180 0 180 180 0 180
0 0 -180z"/>
</g>
</svg>
