<?xml version="1.0" standalone="no"?>
<!DOCTYPE svg PUBLIC "-//W3C//DTD SVG 20010904//EN"
 "http://www.w3.org/TR/2001/REC-SVG-20010904/DTD/svg10.dtd">
<svg version="1.0" xmlns="http://www.w3.org/2000/svg"
 width="292.000000pt" height="331.000000pt" viewBox="0 0 292.000000 331.000000"
 preserveAspectRatio="xMidYMid meet">

<g transform="translate(0.000000,331.000000) scale(0.100000,-0.100000)"
fill="#000000" stroke="none">
<path d="M20 3274 c0 -14 9 -123 19 -242 11 -119 27 -298 36 -397 9 -99 24
-277 35 -395 11 -118 26 -296 35 -395 9 -99 24 -277 35 -395 11 -118 31 -343
45 -500 14 -157 28 -307 30 -335 3 -27 9 -96 14 -153 4 -56 11 -105 14 -108 6
-6 103 -35 372 -109 94 -26 215 -60 270 -75 55 -15 177 -49 270 -75 94 -26
190 -53 215 -60 49 -14 36 -17 545 126 99 27 239 66 310 86 186 51 369 103
371 106 1 1 5 43 8 92 4 50 9 106 11 125 3 19 7 71 10 115 3 44 8 96 10 115 4
29 22 227 50 560 3 36 8 85 10 110 7 70 54 596 60 675 3 39 8 90 10 115 3 25
7 68 10 95 11 108 36 391 55 620 11 132 22 259 25 281 l6 42 -1441 0 -1440 0
0 -24z m2616 -251 c-3 -21 -8 -74 -11 -118 -4 -44 -8 -91 -10 -105 -2 -14 -7
-63 -10 -110 -4 -47 -8 -101 -10 -120 -2 -19 -6 -73 -10 -120 -4 -47 -8 -96
-10 -110 -2 -14 -7 -61 -10 -105 -3 -44 -8 -96 -10 -115 -2 -19 -7 -66 -10
-105 -3 -38 -8 -90 -10 -115 -3 -25 -7 -76 -10 -115 -4 -38 -8 -90 -10 -115
-2 -25 -7 -76 -10 -115 -3 -38 -8 -86 -10 -105 -2 -19 -7 -69 -10 -110 -3 -41
-8 -91 -10 -110 -2 -19 -7 -69 -10 -110 -3 -41 -8 -91 -10 -110 -2 -19 -7 -73
-11 -120 -3 -47 -7 -98 -9 -115 -1 -16 -6 -68 -10 -115 -7 -86 -12 -121 -17
-125 -2 -2 -86 -26 -188 -54 -102 -28 -313 -86 -470 -130 -157 -43 -287 -78
-290 -76 -3 2 -5 85 -5 184 l1 181 -80 24 c-75 22 -181 51 -516 143 -69 19
-134 38 -146 43 -19 7 -22 26 -43 271 -13 145 -25 276 -28 292 l-5 27 191 0
c146 0 191 -3 192 -12 2 -47 26 -279 30 -282 5 -5 343 -97 379 -103 l25 -5 0
279 0 278 -408 3 -407 2 -1 38 c0 20 -2 44 -3 52 -2 8 -6 56 -10 105 -4 50 -9
109 -12 133 l-4 42 423 0 422 0 0 180 0 180 -436 0 -436 0 -7 83 c-7 86 -11
125 -21 219 l-6 58 453 2 453 3 1 175 c1 96 2 178 3 183 0 4 267 7 591 7 l591
0 -5 -37z"/>
</g>
</svg>
