<?xml version="1.0" standalone="no"?>
<!DOCTYPE svg PUBLIC "-//W3C//DTD SVG 20010904//EN"
 "http://www.w3.org/TR/2001/REC-SVG-20010904/DTD/svg10.dtd">
<svg version="1.0" xmlns="http://www.w3.org/2000/svg"
 width="554.000000pt" height="555.000000pt" viewBox="0 0 554.000000 555.000000"
 preserveAspectRatio="xMidYMid meet">

<g transform="translate(0.000000,555.000000) scale(0.100000,-0.100000)"
fill="#000000" stroke="none">
<path d="M2670 5526 c-25 -7 -61 -21 -80 -31 -37 -19 -570 -542 -570 -560 0
-5 141 -151 313 -322 l312 -313 40 11 c22 6 78 9 125 7 70 -3 98 -10 153 -36
171 -80 271 -274 234 -454 l-13 -67 305 -305 306 -305 64 17 c54 13 75 14 135
4 217 -37 366 -208 366 -420 0 -166 -92 -308 -245 -383 -66 -31 -76 -33 -176
-34 -101 0 -108 1 -180 37 -147 73 -237 206 -246 361 -3 54 1 100 10 137 9 30
11 57 6 60 -8 5 -133 126 -420 407 -69 68 -129 123 -132 123 -4 0 -7 -334 -7
-743 l0 -742 60 -44 c129 -94 197 -260 170 -411 -42 -233 -256 -388 -481 -351
-172 28 -305 146 -349 311 -27 100 -9 231 43 320 31 54 107 128 160 157 l47
26 0 762 0 762 -48 26 c-66 36 -148 125 -179 194 -34 76 -43 205 -19 284 l15
54 -307 308 c-169 169 -311 307 -317 307 -18 0 -1692 -1684 -1711 -1720 -24
-48 -44 -127 -44 -175 0 -54 23 -136 50 -182 31 -52 2463 -2486 2522 -2524
109 -70 246 -76 368 -15 38 19 2474 2447 2516 2508 81 116 82 277 4 396 -45
68 -2466 2488 -2523 2522 -79 46 -187 61 -277 36z"/>
</g>
</svg>
