<?xml version="1.0" standalone="no"?>
<!DOCTYPE svg PUBLIC "-//W3C//DTD SVG 20010904//EN"
 "http://www.w3.org/TR/2001/REC-SVG-20010904/DTD/svg10.dtd">
<svg version="1.0" xmlns="http://www.w3.org/2000/svg"
 width="640.000000pt" height="452.000000pt" viewBox="0 0 640.000000 452.000000"
 preserveAspectRatio="xMidYMid meet">

<g transform="translate(0.000000,452.000000) scale(0.100000,-0.100000)"
fill="#000000" stroke="none">
<path d="M10 4513 c0 -4 335 -510 745 -1125 410 -615 745 -1123 745 -1128 0
-6 -333 -510 -741 -1121 -407 -611 -743 -1117 -746 -1125 -4 -12 79 -14 554
-14 l560 0 753 1130 753 1130 -753 1130 -753 1130 -559 0 c-307 0 -558 -3
-558 -7z"/>
<path d="M2123 3598 c338 -508 676 -1016 752 -1131 l138 -207 -198 -298 c-109
-163 -447 -672 -752 -1130 l-552 -832 562 0 562 1 469 704 c258 388 471 705
473 705 1 0 214 -317 473 -705 l470 -705 561 0 c479 0 559 2 552 14 -4 8 -681
1025 -1503 2260 l-1495 2246 -562 0 -562 0 612 -922z"/>
<path d="M3900 3195 c0 -3 111 -172 247 -375 l246 -370 1004 0 1003 0 0 375 0
375 -1250 0 c-687 0 -1250 -2 -1250 -5z"/>
<path d="M4667 2041 c10 -15 122 -184 248 -375 l230 -346 628 0 627 0 0 375 0
375 -876 0 -876 0 19 -29z"/>
</g>
</svg>
