<?xml version="1.0" standalone="no"?>
<!DOCTYPE svg PUBLIC "-//W3C//DTD SVG 20010904//EN"
 "http://www.w3.org/TR/2001/REC-SVG-20010904/DTD/svg10.dtd">
<svg version="1.0" xmlns="http://www.w3.org/2000/svg"
 width="290.000000pt" height="331.000000pt" viewBox="0 0 290.000000 331.000000"
 preserveAspectRatio="xMidYMid meet">

<g transform="translate(0.000000,331.000000) scale(0.100000,-0.100000)"
fill="#000000" stroke="none">
<path d="M10 3283 c0 -19 32 -383 75 -863 23 -255 99 -1105 110 -1230 31 -355
66 -746 71 -787 l5 -53 67 -19 c60 -18 215 -61 452 -126 47 -13 168 -47 270
-75 102 -29 231 -64 287 -80 l102 -27 123 34 c68 18 186 51 263 72 77 22 248
69 380 106 278 77 407 114 411 117 2 3 10 75 19 188 3 36 19 211 35 390 16
179 32 354 35 390 3 36 19 214 35 395 16 182 32 355 35 385 2 30 7 84 10 120
3 36 12 137 20 225 8 88 17 189 20 225 3 36 8 79 10 95 2 17 7 71 10 120 4 50
13 160 21 245 8 85 14 158 14 163 0 4 -648 7 -1440 7 -1365 0 -1440 -1 -1440
-17z m2344 -635 c-3 -29 -11 -111 -17 -183 l-12 -130 -693 -3 c-380 -1 -692
-5 -692 -10 0 -4 4 -45 10 -92 5 -47 12 -123 16 -170 3 -47 8 -88 11 -92 2 -4
297 -6 654 -4 502 2 652 0 656 -10 2 -6 -10 -162 -26 -345 -39 -424 -38 -408
-51 -579 -6 -80 -15 -154 -20 -166 -5 -13 -23 -24 -51 -31 -24 -5 -120 -32
-214 -58 -93 -26 -239 -67 -324 -90 l-154 -42 -231 64 c-399 111 -508 142
-511 145 -1 2 -12 122 -24 268 -12 146 -23 274 -24 285 -2 19 4 20 181 20
l182 0 5 -30 c2 -16 9 -81 14 -143 5 -63 11 -115 13 -117 12 -11 394 -106 411
-102 66 14 373 99 378 105 4 4 14 93 23 197 9 105 19 207 22 228 l6 37 -626 0
-626 0 -4 23 c-3 12 -10 83 -16 157 -16 197 -26 318 -60 680 -11 118 -20 221
-20 228 0 9 189 12 910 12 l910 0 -6 -52z"/>
</g>
</svg>
