<?xml version="1.0" standalone="no"?>
<!DOCTYPE svg PUBLIC "-//W3C//DTD SVG 20010904//EN"
 "http://www.w3.org/TR/2001/REC-SVG-20010904/DTD/svg10.dtd">
<svg version="1.0" xmlns="http://www.w3.org/2000/svg"
 width="469.000000pt" height="636.000000pt" viewBox="0 0 469.000000 636.000000"
 preserveAspectRatio="xMidYMid meet">

<g transform="translate(0.000000,636.000000) scale(0.100000,-0.100000)"
fill="#000000" stroke="none">
<path d="M2984 6300 c35 -152 31 -357 -9 -496 -84 -288 -250 -482 -760 -889
-422 -336 -596 -517 -667 -692 -20 -50 -23 -75 -23 -188 1 -123 2 -134 33
-211 44 -110 121 -236 221 -363 81 -102 468 -496 532 -542 l31 -22 -26 50
c-13 27 -73 121 -132 209 -196 289 -208 308 -255 400 -70 138 -92 234 -87 369
4 94 10 122 38 194 71 182 208 344 480 569 490 405 729 745 770 1096 22 191
-31 403 -130 516 l-22 25 6 -25z"/>
<path d="M3580 4999 c-607 -207 -1003 -473 -1153 -774 -123 -247 -76 -533 132
-800 118 -151 153 -206 173 -268 44 -143 3 -298 -116 -434 -39 -45 -40 -45
-10 -30 56 29 198 140 260 202 74 75 115 133 157 223 30 62 32 75 32 172 0 98
-2 110 -32 174 -18 37 -61 107 -95 155 -103 141 -135 192 -175 276 -36 76 -38
85 -38 180 0 99 0 101 44 184 54 102 168 225 321 348 112 90 381 272 543 368
136 81 131 84 -43 24z"/>
<path d="M4010 2914 c-91 -19 -143 -40 -170 -69 l-23 -24 34 9 c89 26 152 31
223 20 214 -35 363 -230 327 -426 -31 -165 -166 -342 -386 -504 -54 -40 -304
-194 -330 -204 -5 -2 -7 -6 -3 -10 7 -9 199 51 308 96 337 138 541 305 634
516 58 131 42 281 -42 402 -113 162 -349 242 -572 194z"/>
<path d="M1405 2859 c-215 -28 -416 -80 -618 -160 -142 -57 -211 -94 -241
-129 -31 -37 -31 -39 -10 -68 133 -191 1552 -243 2476 -92 268 44 375 72 450
118 35 21 89 51 121 67 31 15 56 29 55 31 -2 1 -120 -15 -263 -36 -282 -42
-663 -82 -955 -102 -282 -18 -1036 -16 -1175 5 -195 28 -286 67 -270 116 19
62 229 153 545 237 l85 22 -65 0 c-36 0 -96 -5 -135 -9z"/>
<path d="M1222 2098 c-121 -54 -192 -117 -192 -171 0 -45 39 -92 108 -130 79
-43 274 -94 458 -119 149 -20 209 -23 504 -22 382 0 591 18 915 80 152 29 403
89 413 99 2 1 -25 16 -60 32 -35 17 -91 51 -124 76 l-62 47 -133 -25 c-204
-38 -507 -74 -729 -86 -291 -17 -797 13 -945 56 -96 27 -122 88 -72 164 15 23
24 41 20 41 -5 0 -50 -19 -101 -42z"/>
<path d="M1382 1417 c-88 -39 -138 -77 -160 -124 -16 -33 -15 -36 7 -79 43
-81 201 -159 421 -207 219 -48 259 -52 580 -51 298 0 309 1 485 32 99 18 236
48 305 68 123 36 278 90 292 103 4 4 -41 29 -100 55 -59 27 -132 64 -163 82
l-57 34 -113 -20 c-322 -57 -544 -76 -789 -66 -518 19 -708 72 -631 177 27 37
16 36 -77 -4z"/>
<path d="M673 985 c-102 -18 -273 -71 -376 -117 -215 -93 -313 -197 -262 -274
20 -32 115 -75 210 -98 172 -40 657 -98 1160 -138 213 -17 1067 -17 1270 0
489 41 833 91 1117 162 268 68 461 148 543 226 38 37 45 49 45 83 0 34 -6 44
-42 75 -44 38 -56 40 -39 8 27 -50 1 -105 -70 -153 -248 -165 -1452 -285
-2521 -250 -484 16 -856 59 -1089 126 -130 38 -153 47 -186 78 -32 29 -29 50
12 86 76 66 280 142 435 161 117 15 134 20 100 30 -40 13 -229 9 -307 -5z"/>
<path d="M4615 574 c-53 -45 -192 -117 -307 -158 -464 -167 -1196 -270 -2028
-283 -457 -7 -955 19 -1285 67 -66 9 -121 16 -123 15 -4 -3 137 -52 185 -65
145 -37 419 -74 688 -92 283 -19 1059 -16 1355 5 864 63 1415 237 1536 483 15
30 25 56 23 58 -2 2 -22 -11 -44 -30z"/>
</g>
</svg>
