<?xml version="1.0" standalone="no"?>
<!DOCTYPE svg PUBLIC "-//W3C//DTD SVG 20010904//EN"
 "http://www.w3.org/TR/2001/REC-SVG-20010904/DTD/svg10.dtd">
<svg version="1.0" xmlns="http://www.w3.org/2000/svg"
 width="300.000000pt" height="300.000000pt" viewBox="0 0 300.000000 300.000000"
 preserveAspectRatio="xMidYMid meet">

<g transform="translate(0.000000,300.000000) scale(0.100000,-0.100000)"
fill="#000000" stroke="none">
<path d="M0 1500 l0 -1500 1500 0 1500 0 0 1500 0 1500 -1500 0 -1500 0 0
-1500z m2451 101 c30 -11 75 -38 99 -58 42 -37 100 -108 100 -125 0 -8 -195
-138 -208 -138 -4 0 -20 16 -36 36 -15 19 -42 44 -60 55 -40 24 -127 26 -167
2 -39 -23 -63 -76 -55 -122 11 -71 28 -84 280 -201 71 -33 153 -79 182 -101
108 -83 162 -207 151 -344 -8 -99 -31 -157 -87 -218 -90 -98 -202 -140 -375
-141 -60 0 -135 6 -165 13 -87 21 -194 77 -248 129 -45 43 -108 130 -100 136
17 14 217 126 224 126 5 -1 21 -19 37 -41 88 -128 323 -159 406 -53 29 36 28
101 -2 144 -27 41 -52 56 -219 131 -268 121 -359 227 -361 424 -2 176 82 293
252 352 58 21 80 23 181 20 87 -3 129 -9 171 -26z m-843 -476 c1 -264 -2 -507
-7 -540 -16 -105 -49 -174 -110 -236 -85 -84 -141 -104 -306 -104 -149 0 -201
15 -290 83 -48 37 -125 133 -125 157 0 12 218 151 224 144 1 -2 17 -27 34 -55
42 -67 82 -88 155 -82 36 3 64 11 78 24 48 43 49 51 49 582 0 274 3 502 7 506
4 3 70 5 147 4 l141 -3 3 -480z"/>
</g>
</svg>
