<?xml version="1.0" standalone="no"?>
<!DOCTYPE svg PUBLIC "-//W3C//DTD SVG 20010904//EN"
 "http://www.w3.org/TR/2001/REC-SVG-20010904/DTD/svg10.dtd">
<svg version="1.0" xmlns="http://www.w3.org/2000/svg"
 width="588.000000pt" height="574.000000pt" viewBox="0 0 588.000000 574.000000"
 preserveAspectRatio="xMidYMid meet">

<g transform="translate(0.000000,574.000000) scale(0.100000,-0.100000)"
fill="#000000" stroke="none">
<path d="M270 5711 c-54 -11 -138 -61 -171 -102 -118 -149 -97 -343 59 -549
27 -36 101 -134 165 -219 146 -192 168 -231 206 -361 17 -58 55 -174 86 -258
126 -351 219 -532 335 -658 63 -67 66 -81 37 -157 -14 -34 -30 -89 -37 -122
-7 -33 -25 -105 -40 -161 -77 -277 -88 -581 -30 -862 83 -401 306 -696 507
-668 124 17 188 96 213 262 21 149 53 329 61 344 5 9 37 -46 99 -170 67 -135
109 -206 160 -269 86 -108 247 -267 370 -367 52 -42 134 -114 181 -159 81 -78
149 -127 149 -107 0 5 -19 22 -42 38 -22 16 -76 68 -119 116 -285 318 -616
893 -782 1361 -5 15 -13 27 -17 27 -18 0 -152 -179 -185 -245 -18 -38 -43
-106 -54 -151 -19 -76 -61 -367 -61 -425 0 -43 -20 -52 -66 -28 -63 34 -83 58
-134 164 -114 236 -162 508 -141 791 14 178 34 275 91 434 83 229 95 301 64
362 -9 16 -48 65 -87 107 -129 139 -189 262 -317 651 -111 341 -152 419 -349
678 -177 233 -221 309 -221 382 0 91 79 143 182 120 156 -33 469 -187 587
-289 101 -87 91 -84 340 -102 250 -19 289 -29 499 -122 686 -306 1381 -1028
1647 -1710 25 -65 99 -231 164 -370 65 -139 151 -323 190 -411 80 -176 141
-290 208 -384 54 -75 99 -101 288 -160 320 -101 413 -147 700 -347 72 -49 176
-121 232 -158 89 -58 153 -118 153 -140 0 -4 -48 -7 -107 -7 -244 0 -429 -30
-653 -105 -129 -44 -170 -65 -170 -89 0 -6 18 -47 39 -91 107 -223 311 -391
726 -596 242 -119 378 -206 514 -326 102 -90 114 -93 78 -16 -13 29 -64 95
-118 153 -286 313 -374 390 -584 512 -162 95 -255 166 -294 224 -29 44 -30 49
-14 55 71 24 340 81 443 94 194 25 400 77 400 101 0 29 -176 231 -269 311
-181 153 -418 326 -591 431 -80 48 -418 204 -503 232 -47 15 -90 70 -148 190
-22 47 -70 143 -106 213 -125 249 -236 495 -399 882 -49 118 -79 171 -191 344
-172 262 -298 418 -517 636 -234 233 -460 409 -784 610 -183 112 -282 154
-483 204 -133 33 -192 42 -316 49 l-152 9 -53 41 c-29 23 -75 60 -103 82 -65
52 -305 172 -420 209 -140 46 -253 60 -345 42z"/>
<path d="M1223 4733 c-18 -2 -33 -8 -33 -12 0 -8 23 -38 95 -128 22 -27 58
-87 80 -134 22 -46 41 -86 42 -88 6 -9 46 36 63 69 9 19 20 55 23 80 5 38 2
53 -22 95 -16 28 -50 67 -77 87 -51 39 -73 43 -171 31z"/>
</g>
</svg>
