<?xml version="1.0" standalone="no"?>
<!DOCTYPE svg PUBLIC "-//W3C//DTD SVG 20010904//EN"
 "http://www.w3.org/TR/2001/REC-SVG-20010904/DTD/svg10.dtd">
<svg version="1.0" xmlns="http://www.w3.org/2000/svg"
 width="777.000000pt" height="497.000000pt" viewBox="0 0 777.000000 497.000000"
 preserveAspectRatio="xMidYMid meet">

<g transform="translate(0.000000,497.000000) scale(0.100000,-0.100000)"
fill="#000000" stroke="none">
<path d="M5279 4931 l-24 -19 -5 -705 -5 -705 -85 50 c-268 160 -280 164 -343
132 -111 -57 -757 -442 -782 -465 l-30 -29 0 -490 0 -490 30 -29 c25 -23 671
-408 782 -465 41 -20 75 -20 116 0 111 57 757 442 782 465 l30 29 3 1218 c2
844 0 1228 -8 1254 -6 21 -23 46 -38 57 -71 50 -359 211 -378 211 -12 0 -32
-9 -45 -19z m-161 -1931 l131 -75 0 -225 0 -225 -181 -104 c-100 -57 -187
-104 -193 -104 -6 0 -93 47 -193 104 l-181 104 0 225 0 225 187 107 186 107
57 -32 c31 -18 115 -66 187 -107z"/>
<path d="M724 3631 c-506 -292 -680 -398 -701 -430 l-23 -34 0 -587 0 -587 23
-21 c13 -12 32 -22 43 -22 18 0 322 168 381 211 51 36 53 49 53 419 l1 345
181 104 c100 57 187 104 193 104 6 0 93 -47 193 -104 l181 -104 1 -345 c0
-315 2 -348 18 -379 15 -28 54 -55 207 -143 103 -59 198 -108 211 -108 12 0
32 12 43 26 21 26 21 35 21 609 l0 582 -23 34 c-17 25 -93 75 -302 197 -486
285 -517 302 -550 302 -20 0 -73 -24 -151 -69z"/>
<path d="M2815 3683 c-143 -76 -757 -442 -780 -464 l-30 -29 0 -490 0 -490 30
-29 c25 -23 671 -408 782 -465 41 -20 75 -20 116 0 111 57 757 442 782 465
l30 29 3 478 3 478 -23 34 c-22 33 -193 138 -702 431 -127 73 -158 81 -211 52z"/>
<path d="M6815 3683 c-143 -76 -757 -442 -780 -464 l-30 -29 0 -490 0 -490 30
-29 c17 -16 199 -131 405 -256 364 -220 376 -226 420 -222 35 3 88 29 237 116
190 112 211 129 198 170 -3 12 -155 107 -400 252 l-395 234 0 225 1 225 181
104 c100 57 187 104 193 104 6 0 93 -47 193 -104 l181 -104 1 -165 c0 -164 5
-190 35 -190 7 0 104 53 216 119 144 83 211 128 227 151 20 31 22 44 22 180 0
136 -2 149 -23 181 -21 32 -195 138 -701 430 -127 73 -158 81 -211 52z"/>
<path d="M6767 2888 l-107 -62 0 -126 0 -125 101 -59 c56 -33 107 -59 114 -59
7 0 58 26 114 59 l101 59 0 125 0 125 -63 36 c-34 20 -82 48 -107 62 l-46 26
-107 -61z"/>
<path d="M3780 1933 c-122 -65 -710 -411 -732 -431 -14 -13 -32 -36 -38 -51
-7 -18 -10 -164 -8 -473 3 -435 4 -447 24 -475 24 -33 216 -147 291 -174 102
-37 210 -17 265 49 45 54 49 103 46 552 l-3 415 -60 0 -60 0 -5 -428 -5 -429
-29 -25 c-46 -40 -98 -29 -228 46 l-108 63 0 421 0 422 354 203 c194 111 360
202 368 202 18 0 710 -397 720 -413 4 -7 8 -195 8 -419 l0 -407 -27 -19 c-49
-34 -690 -402 -701 -402 -5 0 -52 25 -104 55 l-95 55 -67 -30 c-38 -17 -66
-33 -63 -36 3 -3 70 -44 149 -90 133 -79 146 -85 188 -81 36 3 115 45 410 217
201 116 373 219 384 228 46 42 46 46 46 512 0 473 0 469 -52 516 -12 12 -185
115 -383 229 -392 227 -413 236 -485 198z"/>
<path d="M4874 1551 c-21 -13 -38 -36 -49 -65 -17 -43 -17 -48 -1 -91 22 -56
66 -85 130 -85 124 0 171 160 70 239 -35 27 -107 28 -150 2z m152 -35 c28 -28
34 -42 34 -75 0 -123 -186 -154 -219 -36 -22 79 27 145 106 145 38 0 50 -5 79
-34z"/>
<path d="M4900 1439 c0 -60 3 -80 13 -77 6 3 13 19 15 37 4 41 35 39 42 -3 3
-16 10 -31 17 -33 14 -5 15 126 0 145 -5 6 -27 12 -48 12 l-39 0 0 -81z m68
34 c-5 -26 -38 -29 -38 -4 0 15 6 21 21 21 14 0 19 -5 17 -17z"/>
<path d="M3930 1360 c-82 -18 -147 -57 -177 -107 -30 -52 -40 -125 -24 -176
17 -50 79 -103 143 -121 29 -9 107 -23 173 -31 147 -19 190 -30 216 -56 38
-38 18 -102 -43 -129 -35 -16 -66 -20 -158 -20 -100 0 -122 3 -160 23 -38 19
-47 29 -62 72 l-16 50 -58 3 c-37 2 -60 -1 -65 -9 -18 -30 17 -130 62 -178 86
-91 364 -118 517 -51 121 54 173 175 123 286 -34 76 -98 105 -296 135 -213 32
-245 46 -245 101 0 66 100 107 228 93 95 -10 128 -29 159 -92 l26 -54 56 3 56
3 -2 42 c-3 83 -64 161 -152 194 -64 25 -225 34 -301 19z"/>
</g>
</svg>
