<?xml version="1.0" standalone="no"?>
<!DOCTYPE svg PUBLIC "-//W3C//DTD SVG 20010904//EN"
 "http://www.w3.org/TR/2001/REC-SVG-20010904/DTD/svg10.dtd">
<svg version="1.0" xmlns="http://www.w3.org/2000/svg"
 width="515.000000pt" height="515.000000pt" viewBox="0 0 515.000000 515.000000"
 preserveAspectRatio="xMidYMid meet">

<g transform="translate(0.000000,515.000000) scale(0.100000,-0.100000)"
fill="#000000" stroke="none">
<path d="M2380 5134 c-232 -26 -353 -49 -500 -96 -273 -87 -474 -228 -552
-386 l-33 -67 -3 -297 -3 -298 640 0 641 0 0 -65 0 -65 -1003 -2 -1002 -3 -67
-33 c-228 -112 -400 -451 -470 -927 -17 -119 -17 -511 1 -630 70 -478 241
-815 470 -928 l66 -32 296 -3 296 -3 7 173 c16 414 63 658 159 828 51 92 158
191 257 238 168 80 338 102 789 102 577 1 878 20 1031 66 198 59 319 191 379
414 58 214 74 448 69 1030 l-3 435 -33 67 c-109 222 -443 396 -887 463 -104
16 -464 28 -545 19z m-406 -426 c79 -40 126 -117 126 -208 0 -133 -101 -233
-235 -233 -200 0 -307 232 -177 383 74 87 185 110 286 58z"/>
<path d="M3972 3628 c-21 -421 -66 -617 -179 -790 -80 -122 -182 -197 -338
-247 -170 -55 -249 -62 -850 -71 -559 -9 -714 -18 -840 -50 -311 -79 -430
-296 -465 -851 -7 -100 -10 -358 -8 -609 3 -428 3 -436 26 -484 108 -235 447
-414 912 -483 144 -21 510 -24 650 -5 477 66 828 246 939 482 26 55 26 56 29
353 l3 297 -640 0 -641 0 0 65 0 65 1003 2 1002 3 49 23 c239 110 421 460 488
942 17 124 17 496 0 620 -67 482 -249 832 -488 942 -47 22 -61 23 -345 26
l-295 3 -12 -233z m-591 -2759 c20 -10 52 -36 71 -59 130 -151 23 -383 -177
-383 -133 0 -235 101 -235 233 0 142 121 250 260 233 24 -3 61 -13 81 -24z"/>
</g>
</svg>
