<?xml version="1.0" standalone="no"?>
<!DOCTYPE svg PUBLIC "-//W3C//DTD SVG 20010904//EN"
 "http://www.w3.org/TR/2001/REC-SVG-20010904/DTD/svg10.dtd">
<svg version="1.0" xmlns="http://www.w3.org/2000/svg"
 width="421.000000pt" height="422.000000pt" viewBox="0 0 421.000000 422.000000"
 preserveAspectRatio="xMidYMid meet">

<g transform="translate(0.000000,422.000000) scale(0.100000,-0.100000)"
fill="#000000" stroke="none">
<path d="M1885 4189 c-983 -103 -1755 -881 -1855 -1868 -61 -609 162 -1233
599 -1670 438 -438 1051 -659 1664 -601 722 69 1356 507 1673 1155 393 805
231 1764 -404 2393 -442 437 -1062 656 -1677 591z m480 -538 c44 -11 122 -42
174 -67 265 -130 422 -432 376 -724 -27 -170 -31 -329 -10 -416 15 -66 16 -87
6 -159 -22 -157 -67 -293 -124 -376 -14 -20 -28 -56 -32 -80 -10 -63 -51 -190
-96 -298 -43 -104 -61 -193 -51 -261 6 -36 12 -46 32 -52 336 -106 893 -300
914 -318 13 -13 -200 -220 -312 -303 -624 -464 -1440 -510 -2109 -119 -121 71
-272 190 -387 305 -93 93 -107 111 -93 119 39 21 380 146 632 230 149 50 274
96 278 102 15 21 0 227 -21 286 -64 179 -83 238 -93 293 -7 36 -24 80 -41 104
-86 128 -150 446 -109 546 15 39 14 190 -4 322 -29 214 -13 342 61 491 42 86
127 191 192 239 106 78 242 134 377 155 100 15 348 5 440 -19z"/>
</g>
</svg>
