<?xml version="1.0" standalone="no"?>
<!DOCTYPE svg PUBLIC "-//W3C//DTD SVG 20010904//EN"
 "http://www.w3.org/TR/2001/REC-SVG-20010904/DTD/svg10.dtd">
<svg version="1.0" xmlns="http://www.w3.org/2000/svg"
 width="605.000000pt" height="586.000000pt" viewBox="0 0 605.000000 586.000000"
 preserveAspectRatio="xMidYMid meet">

<g transform="translate(0.000000,586.000000) scale(0.100000,-0.100000)"
fill="#000000" stroke="none">
<path d="M2935 5827 c-87 -29 -41 10 -965 -837 -183 -168 -421 -386 -530 -485
-108 -99 -298 -273 -421 -386 -260 -239 -304 -280 -668 -613 -314 -287 -325
-302 -326 -426 0 -96 21 -141 113 -238 90 -93 157 -127 257 -127 93 0 133 21
265 140 58 52 108 95 111 95 4 0 7 -607 7 -1348 0 -1331 0 -1349 20 -1394 25
-58 91 -124 151 -152 45 -21 53 -21 646 -21 l600 0 42 23 c66 35 110 79 140
140 l28 57 3 958 2 957 665 0 664 0 3 -962 c3 -953 3 -963 24 -1008 30 -65 69
-107 128 -138 l51 -27 609 -3 c695 -3 677 -5 765 74 29 26 62 65 74 88 l22 41
3 1343 2 1342 78 -66 77 -66 63 5 c47 4 76 13 118 38 69 41 206 186 235 248
51 109 27 234 -60 320 -43 43 -357 320 -650 575 -70 60 -162 141 -206 180 -44
40 -150 132 -235 206 -85 74 -157 137 -160 140 -3 3 -90 80 -195 170 -104 91
-194 170 -200 176 -5 6 -95 85 -200 175 -104 90 -194 168 -200 175 -5 6 -95
85 -199 175 -104 90 -252 219 -330 287 -77 67 -165 134 -194 149 -63 31 -166
40 -227 20z"/>
</g>
</svg>
