<?xml version="1.0" standalone="no"?>
<!DOCTYPE svg PUBLIC "-//W3C//DTD SVG 20010904//EN"
 "http://www.w3.org/TR/2001/REC-SVG-20010904/DTD/svg10.dtd">
<svg version="1.0" xmlns="http://www.w3.org/2000/svg"
 width="512.000000pt" height="603.000000pt" viewBox="0 0 512.000000 603.000000"
 preserveAspectRatio="xMidYMid meet">

<g transform="translate(0.000000,603.000000) scale(0.100000,-0.100000)"
fill="#000000" stroke="none">
<path d="M122 6004 c-41 -20 -59 -37 -82 -78 l-30 -51 3 -2856 2 -2856 29 -41
c18 -26 47 -51 79 -67 l51 -25 2375 0 c2294 0 2377 1 2416 19 51 24 80 51 105
101 20 39 20 54 18 1997 l-3 1958 -64 110 c-380 648 -904 1179 -1501 1521 -47
26 -129 77 -184 112 -92 60 -222 129 -310 166 -35 14 -174 16 -1445 16 l-1407
0 -52 -26z m2290 -514 c125 -231 269 -561 341 -785 82 -255 117 -448 117 -649
0 -141 10 -179 62 -233 17 -18 53 -40 80 -49 45 -15 57 -14 166 3 166 26 642
26 782 0 292 -55 489 -137 653 -272 l67 -55 0 -1505 0 -1505 -2130 0 -2130 0
0 2590 0 2590 962 -2 962 -3 68 -125z m727 -22 c201 -100 436 -250 616 -394
146 -116 448 -420 567 -569 137 -173 358 -503 358 -535 0 -5 -35 8 -77 29
-144 73 -341 139 -503 170 -194 37 -507 57 -701 44 l-117 -8 -16 120 c-43 326
-191 766 -392 1167 -30 59 -54 110 -54 112 0 12 151 -52 319 -136z"/>
<path d="M940 5128 c-18 -13 -43 -36 -54 -51 -21 -28 -21 -35 -21 -622 0 -584
0 -594 21 -621 11 -15 33 -37 48 -48 27 -21 38 -21 581 -21 547 0 554 0 582
21 15 12 37 36 48 55 19 33 20 52 20 614 0 567 0 581 -21 615 -11 19 -35 45
-54 57 l-33 23 -542 0 -542 0 -33 -22z"/>
<path d="M1017 3000 c-140 -42 -184 -245 -75 -347 60 -56 -33 -53 1608 -53
1341 0 1515 2 1548 15 79 34 122 101 122 192 0 72 -28 125 -88 168 l-44 30
-1521 2 c-837 1 -1535 -2 -1550 -7z"/>
<path d="M993 2196 c-71 -33 -106 -87 -111 -170 -6 -92 32 -158 115 -200 29
-15 172 -16 1553 -16 1475 0 1522 1 1558 19 79 41 116 106 110 196 -5 83 -38
133 -109 169 l-53 26 -1505 0 -1506 0 -52 -24z"/>
<path d="M1020 1425 c-52 -16 -107 -65 -126 -112 -17 -39 -18 -121 -3 -160 13
-34 64 -89 104 -111 28 -16 152 -17 1529 -20 1689 -3 1570 -8 1644 72 45 49
57 89 50 167 -8 77 -75 151 -154 169 -22 6 -664 9 -1519 9 -1237 0 -1487 -3
-1525 -14z"/>
</g>
</svg>
