<?xml version="1.0" standalone="no"?>
<!DOCTYPE svg PUBLIC "-//W3C//DTD SVG 20010904//EN"
 "http://www.w3.org/TR/2001/REC-SVG-20010904/DTD/svg10.dtd">
<svg version="1.0" xmlns="http://www.w3.org/2000/svg"
 width="419.000000pt" height="387.000000pt" viewBox="0 0 419.000000 387.000000"
 preserveAspectRatio="xMidYMid meet">

<g transform="translate(0.000000,387.000000) scale(0.100000,-0.100000)"
fill="#000000" stroke="none">
<path d="M1237 3798 c-9 -24 -31 -83 -48 -133 -27 -75 -41 -99 -83 -140 -66
-65 -132 -89 -224 -83 -55 4 -89 15 -187 62 l-119 57 -133 -133 c-73 -73 -133
-138 -133 -144 0 -6 22 -58 49 -115 62 -129 75 -183 62 -255 -12 -61 -29 -98
-66 -142 -38 -45 -85 -71 -214 -118 l-116 -42 0 -192 0 -192 116 -42 c129 -47
176 -73 214 -118 37 -44 54 -81 66 -142 13 -72 0 -126 -62 -255 -27 -57 -49
-109 -49 -115 0 -6 60 -71 133 -144 l133 -133 118 57 c103 50 129 58 193 62
67 4 79 2 138 -27 85 -42 126 -92 165 -200 17 -47 38 -105 47 -128 l16 -43
192 0 192 0 38 108 c46 132 73 180 126 226 58 49 125 70 208 63 53 -4 89 -16
185 -61 l120 -57 135 135 134 134 -58 129 c-54 117 -59 134 -59 198 -1 52 5
83 22 120 44 95 95 133 257 190 61 21 113 43 116 48 4 5 6 93 5 194 l-1 185
-110 39 c-130 46 -158 60 -207 107 -54 51 -82 122 -83 207 0 65 5 80 58 193
31 67 57 126 57 130 0 4 -60 67 -133 140 l-133 133 -120 -57 c-96 -45 -132
-57 -185 -61 -86 -7 -152 15 -214 69 -54 47 -69 76 -120 221 l-38 107 -192 0
-192 0 -16 -42z m321 -873 c101 -24 170 -63 247 -140 110 -109 155 -216 155
-365 -1 -253 -182 -468 -431 -510 -314 -53 -598 187 -601 508 -1 146 54 273
161 375 132 124 300 172 469 132z"/>
<path d="M3282 1943 c-5 -10 -17 -41 -26 -69 -16 -50 -50 -91 -93 -113 -38
-19 -94 -12 -165 21 l-69 31 -70 -69 c-38 -37 -69 -74 -69 -80 0 -7 13 -41 30
-76 32 -67 36 -100 19 -145 -18 -48 -59 -81 -136 -109 l-74 -27 3 -101 3 -100
65 -26 c94 -36 106 -45 129 -93 28 -58 26 -90 -9 -165 -17 -35 -30 -69 -30
-76 0 -6 31 -42 68 -79 l68 -68 70 33 c142 67 212 34 273 -127 l19 -50 103 0
104 0 23 65 c15 45 35 77 62 103 35 33 45 37 92 37 38 0 71 -8 117 -30 l65
-31 72 72 72 71 -34 78 c-38 87 -40 106 -20 153 20 46 53 73 131 105 l70 29 3
100 3 100 -73 27 c-85 32 -124 65 -139 119 -13 47 -5 85 32 158 l28 56 -74 73
-74 73 -69 -31 c-135 -63 -216 -30 -263 109 l-24 69 -102 0 c-87 0 -104 -3
-111 -17z m201 -479 c150 -51 224 -232 153 -377 -48 -99 -131 -150 -241 -151
-119 -1 -224 69 -259 171 -77 226 124 433 347 357z"/>
<path d="M2096 1027 c-13 -46 -30 -67 -52 -67 -2 0 -22 17 -45 37 l-41 37 -46
-27 c-38 -21 -46 -31 -43 -49 2 -13 5 -41 5 -63 l1 -40 -40 0 c-22 1 -51 3
-64 5 -20 4 -28 -3 -50 -42 l-26 -47 33 -33 c20 -21 32 -44 32 -61 0 -24 -6
-28 -55 -43 l-56 -16 3 -55 3 -56 47 -14 c69 -20 77 -43 33 -91 -19 -22 -35
-44 -35 -50 0 -9 32 -71 46 -91 2 -2 25 3 53 10 66 17 86 3 78 -56 -4 -23 -9
-47 -12 -55 -3 -10 10 -24 42 -42 l48 -26 37 34 c59 54 86 45 108 -34 l11 -43
55 3 56 3 16 50 c22 66 52 72 101 21 l34 -35 49 26 c40 22 48 31 44 47 -29
103 -14 127 65 107 28 -7 52 -12 53 -10 2 2 15 25 29 50 l27 45 -35 34 c-57
56 -45 90 38 105 l37 7 0 59 0 58 -42 12 c-24 6 -49 16 -55 21 -22 18 -14 51
22 88 l34 35 -29 47 c-28 45 -30 46 -62 37 -18 -5 -45 -9 -60 -9 -35 0 -45 33
-28 86 12 34 11 38 -11 55 -13 10 -37 24 -52 30 -26 11 -31 9 -67 -26 -38 -37
-40 -38 -64 -22 -16 11 -26 30 -31 56 -7 44 -11 47 -77 50 l-46 2 -16 -54z
m150 -283 c105 -50 147 -170 95 -271 -67 -133 -257 -145 -338 -22 -52 79 -40
192 29 256 54 51 149 68 214 37z"/>
</g>
</svg>
